# xmcd
# 
# Track frame offsets:
#     150
#     17408
#     39065
#     56638
#     73523
# 
# Disc length: 1216
# 
# Revision: 1
# Processed by: cddbd v1.5.2PL0 Copyright (c) Steve Scherf et al.
# Submitted via: fre:ac v1.0.17
# 
DISCID=3204be05
DTITLE=Fly to the Sky 플아이 투 더 스카이 - Love and Hate (1st Mini Album)
DYEAR=2015
DGENRE=K-Pop
TTITLE0=나쁜 자식
TTITLE1=미워해야 한다면
TTITLE2=그렇게 됐어
TTITLE3=Once Again
TTITLE4=Stop Time
EXTD=LOEN Entertainment\nH2 Media Entertainment\nB-You Entertainment\nWhy N Communications
EXTT0=
EXTT1=
EXTT2=
EXTT3=
EXTT4=
PLAYORDER=
